<svg width="678" height="156" viewBox="0 0 678 156" fill="none" xmlns="http://www.w3.org/2000/svg">
<path d="M14.0352 0.0340151L65.2419 89.2794H154.142C154.726 85.443 155.029 81.5142 155.029 77.5146C155.029 34.7045 120.325 0 77.5146 0H15.0553C14.7125 0 14.3723 0.0114591 14.0352 0.0340151Z" fill="white"/>
<path d="M0 28.5954L34.8189 89.2794H0V28.5954Z" fill="white"/>
<path d="M0 115.667V139.974C0 148.289 6.74049 155.029 15.0553 155.029H72.5444L49.9596 115.667H0Z" fill="white"/>
<path d="M100.906 151.437C119.727 145.487 135.441 132.549 145.005 115.667H80.3826L100.906 151.437Z" fill="white"/>
<path d="M184 121.779L221.362 28.9676H236.016L273.246 121.779H254.103L225.323 45.6022H231.924L202.747 121.779H184ZM203.803 104.484V89.4333H253.707V104.484H203.803Z" fill="white"/>
<path d="M302.006 123.231C298.398 123.231 294.833 122.747 291.313 121.779C287.88 120.81 284.712 119.49 281.807 117.818C278.903 116.058 276.394 113.945 274.282 111.481L284.58 101.051C286.78 103.516 289.332 105.364 292.237 106.596C295.141 107.828 298.354 108.444 301.874 108.444C304.691 108.444 306.803 108.048 308.211 107.256C309.708 106.464 310.456 105.276 310.456 103.692C310.456 101.931 309.664 100.567 308.079 99.599C306.583 98.6308 304.603 97.8387 302.138 97.2226C299.674 96.5185 297.078 95.7704 294.349 94.9782C291.709 94.0981 289.156 92.9979 286.692 91.6777C284.228 90.2695 282.203 88.3772 280.619 86.0008C279.123 83.5364 278.375 80.3679 278.375 76.4952C278.375 72.4466 279.343 68.926 281.279 65.9335C283.303 62.941 286.164 60.6087 289.861 58.9364C293.557 57.2641 297.914 56.428 302.931 56.428C308.211 56.428 312.964 57.3521 317.189 59.2004C321.502 61.0487 325.066 63.8212 327.883 67.5178L317.453 77.9475C315.517 75.5711 313.316 73.8548 310.852 72.7986C308.476 71.7425 305.879 71.2144 303.063 71.2144C300.51 71.2144 298.53 71.6105 297.122 72.4026C295.801 73.1947 295.141 74.2949 295.141 75.7031C295.141 77.2874 295.889 78.5196 297.386 79.3997C298.97 80.2799 300.994 81.072 303.459 81.7761C305.923 82.3922 308.476 83.1403 311.116 84.0205C313.844 84.8126 316.397 85.9568 318.773 87.453C321.238 88.9493 323.218 90.9296 324.714 93.394C326.298 95.8584 327.091 99.0269 327.091 102.9C327.091 109.149 324.846 114.121 320.357 117.818C315.869 121.427 309.752 123.231 302.006 123.231Z" fill="white"/>
<path d="M365.553 123.099C359.04 123.099 353.187 121.647 347.994 118.742C342.801 115.838 338.709 111.877 335.716 106.86C332.724 101.843 331.228 96.2104 331.228 89.9614C331.228 83.6244 332.724 77.9475 335.716 72.9307C338.709 67.9139 342.801 63.9532 347.994 61.0487C353.275 58.0563 359.128 56.56 365.553 56.56C370.57 56.56 375.191 57.4842 379.415 59.3325C383.64 61.1808 387.293 63.8212 390.373 67.2537L379.283 78.4756C377.611 76.6273 375.587 75.219 373.21 74.2509C370.922 73.2827 368.37 72.7986 365.553 72.7986C362.385 72.7986 359.524 73.5468 356.972 75.043C354.507 76.4512 352.527 78.4316 351.031 80.984C349.623 83.4484 348.918 86.3968 348.918 89.8294C348.918 93.1739 349.623 96.1664 351.031 98.8069C352.527 101.359 354.507 103.384 356.972 104.88C359.524 106.288 362.385 106.992 365.553 106.992C368.458 106.992 371.054 106.508 373.342 105.54C375.719 104.484 377.743 102.988 379.415 101.051L390.637 112.273C387.381 115.794 383.64 118.478 379.415 120.326C375.191 122.175 370.57 123.099 365.553 123.099Z" fill="white"/>
<path d="M397.131 121.779V58.0123H414.558V121.779H397.131ZM405.844 47.7146C403.028 47.7146 400.696 46.7904 398.847 44.9421C396.999 43.0058 396.075 40.6294 396.075 37.813C396.075 35.0845 396.999 32.7522 398.847 30.8158C400.696 28.8795 403.028 27.9114 405.844 27.9114C408.749 27.9114 411.081 28.8795 412.842 30.8158C414.69 32.7522 415.614 35.0845 415.614 37.813C415.614 40.6294 414.69 43.0058 412.842 44.9421C411.081 46.7904 408.749 47.7146 405.844 47.7146Z" fill="white"/>
<path d="M426.578 121.779V58.0123H444.005V121.779H426.578ZM435.291 47.7146C432.475 47.7146 430.142 46.7904 428.294 44.9421C426.446 43.0058 425.522 40.6294 425.522 37.813C425.522 35.0845 426.446 32.7522 428.294 30.8158C430.142 28.8795 432.475 27.9114 435.291 27.9114C438.196 27.9114 440.528 28.8795 442.288 30.8158C444.137 32.7522 445.061 35.0845 445.061 37.813C445.061 40.6294 444.137 43.0058 442.288 44.9421C440.528 46.7904 438.196 47.7146 435.291 47.7146Z" fill="white"/>
<path d="M469.151 121.779V105.804H492.783C498.768 105.804 504.005 104.572 508.493 102.107C512.982 99.555 516.459 95.9904 518.923 91.4137C521.476 86.8369 522.752 81.424 522.752 75.175C522.752 69.102 521.476 63.8212 518.923 59.3325C516.371 54.7557 512.85 51.2352 508.361 48.7708C503.873 46.2183 498.68 44.9421 492.783 44.9421H468.755V28.9676H493.047C499.912 28.9676 506.249 30.1117 512.058 32.4001C517.955 34.6885 523.06 37.945 527.373 42.1697C531.773 46.3064 535.162 51.1911 537.538 56.8241C540.003 62.457 541.235 68.618 541.235 75.307C541.235 81.9961 540.003 88.2011 537.538 93.9221C535.162 99.555 531.817 104.484 527.505 108.708C523.192 112.845 518.087 116.058 512.19 118.346C506.381 120.634 500.088 121.779 493.311 121.779H469.151ZM456.873 121.779V28.9676H474.828V121.779H456.873Z" fill="white"/>
<path d="M579.322 123.099C572.897 123.099 567.088 121.647 561.896 118.742C556.791 115.75 552.698 111.745 549.618 106.728C546.625 101.623 545.129 95.9464 545.129 89.6974C545.129 83.4484 546.625 77.8595 549.618 72.9307C552.61 67.9139 556.703 63.9532 561.896 61.0487C567.088 58.0563 572.853 56.56 579.19 56.56C585.703 56.56 591.512 58.0563 596.617 61.0487C601.81 63.9532 605.903 67.9139 608.895 72.9307C611.888 77.8595 613.384 83.4484 613.384 89.6974C613.384 95.9464 611.888 101.623 608.895 106.728C605.903 111.745 601.81 115.75 596.617 118.742C591.512 121.647 585.747 123.099 579.322 123.099ZM579.19 106.992C582.447 106.992 585.307 106.288 587.772 104.88C590.324 103.384 592.26 101.359 593.581 98.8069C594.989 96.1664 595.693 93.1739 595.693 89.8294C595.693 86.4849 594.989 83.5364 593.581 80.984C592.172 78.4316 590.236 76.4512 587.772 75.043C585.307 73.5468 582.447 72.7986 579.19 72.7986C576.022 72.7986 573.205 73.5468 570.741 75.043C568.277 76.4512 566.34 78.4316 564.932 80.984C563.524 83.5364 562.82 86.4849 562.82 89.8294C562.82 93.1739 563.524 96.1664 564.932 98.8069C566.34 101.359 568.277 103.384 570.741 104.88C573.205 106.288 576.022 106.992 579.19 106.992Z" fill="white"/>
<path d="M652.318 123.099C645.805 123.099 639.952 121.647 634.76 118.742C629.567 115.838 625.474 111.877 622.482 106.86C619.489 101.843 617.993 96.2104 617.993 89.9614C617.993 83.6244 619.489 77.9475 622.482 72.9307C625.474 67.9139 629.567 63.9532 634.76 61.0487C640.04 58.0563 645.893 56.56 652.318 56.56C657.335 56.56 661.956 57.4842 666.181 59.3325C670.405 61.1808 674.058 63.8212 677.138 67.2537L666.049 78.4756C664.376 76.6273 662.352 75.219 659.976 74.2509C657.687 73.2827 655.135 72.7986 652.318 72.7986C649.15 72.7986 646.289 73.5468 643.737 75.043C641.273 76.4512 639.292 78.4316 637.796 80.984C636.388 83.4484 635.684 86.3968 635.684 89.8294C635.684 93.1739 636.388 96.1664 637.796 98.8069C639.292 101.359 641.273 103.384 643.737 104.88C646.289 106.288 649.15 106.992 652.318 106.992C655.223 106.992 657.819 106.508 660.108 105.54C662.484 104.484 664.508 102.988 666.181 101.051L677.402 112.273C674.146 115.794 670.405 118.478 666.181 120.326C661.956 122.175 657.335 123.099 652.318 123.099Z" fill="white"/>
</svg>
